<svg class="svgLogo" version="1.1" xmlns="http://www.w3.org/2000/svg" xmlns:xlink="http://www.w3.org/1999/xlink" x="0px"
    y="0px" viewBox="0 0 361 185" style="enable-background:new 0 0 361 185;" xml:space="preserve">
    <style type="text/css">
        .st0 {
            fill: #FFFFFF;
            stroke: #000000;
            stroke-width: 0.5;
            stroke-miterlimit: 10;
        }
    </style>
    <g>
        <path class="st0 colorMain" d="M226.4,39.8c-1.3-1.2-2.7-2.3-4.1-3.4c-2.4-1.9-4.9-3.8-7.6-5.1c-0.9-0.4-2-1-3-0.7c-0.8,0.2-1.5,1.1-2.1,1.7
        		c-0.7,0.6-1.3,1.2-2,1.8c-1.3,1.2-2.7,2.3-4,3.5c-0.6,0.5-1.3,1-1.8,1.6c0,0-1.5,1.5-1.4,4.1c0.1,1.9-0.3,4.1-1.2,5.8
        		c-1,1.7-2.6,3-4.5,3.9c-0.6,0.3-1.2,0.5-1.9,0.3c-2-0.5-1.7-3.7-1.6-5.2c0-0.6,0.1-1.2,0.2-1.8c0-0.3,0.5-2,0.3-2.1
        		c-2-1.8-4.1-2.5-4.1-2.5c-0.1,0.7-0.1,1.3-0.2,2c0,0.4-0.1,0.7-0.1,1.1c0,0.2,0,0.6-0.1,0.8c0,0.1-0.1,0.1-0.1,0.1
        		c-0.3,0.3-0.9,0.4-1.2,0.6c-0.1,0-0.9,0.4-0.9,0.4c-0.1,0.8-0.1,1.7-0.2,2.5c-0.1,1.8-0.2,3.4-0.8,5.1c-0.3,0.9-0.7,1.7-1.3,2.5
        		c-0.5,0.7-1.1,1.4-1.9,1.6c-1,0.2-1.8-0.4-2.4-1c-0.5-0.5-0.8-1.1-1.2-1.6c-0.1-0.2-1.4-2.4-1.3-2.5c0,0-1.5,1.1-1.5,1.1
        		c-0.1,2.3-0.2,4.6-0.4,6.8c0,0.8-0.1,1.6-0.1,2.3c-0.1,1.2-0.2,2.4-0.8,3.5c-0.3,0.6-0.7,1.1-1.1,1.7c-0.5,0.7-1.3,1.5-2.3,1.5
        		c-1.1,0-1.8-1.1-2.2-2c-0.7-1.4-1-3-1.3-4.6c-0.1-0.8-0.3-1.5-0.4-2.3c0,0-5,2.5-5,2.5c-0.1,1-0.2,2-0.3,3.1c-0.1,1,0,2-0.3,3
        		c-0.3,0.8-0.8,1.6-1.5,2.1c-1.1,0.8-2.2,2.1-3.7,2.2c-0.7,0-1.4-0.3-1.8-1c-0.5-0.8-0.6-1.8-0.6-2.6c0-0.5,0-1,0-1.6
        		c0-0.3,0-0.6,0-0.9c0-0.2,0-0.9,0.1-1c0,0-4.8,4.7-4.8,4.7c0,2.4,0,4.8,0,7.1c0,1.1,0,2.2,0,3.3c0,0.1,0,0.2,0,0.4
        		c-0.1,0.1-0.2,0.2-0.3,0.3c-1.2,1.1-3.1,2.3-4.7,1.6c-2.1-0.9-1.8-4.4-1.7-6.2c0.1-0.8,0.2-1.6,0.3-2.4l-5.4,1.5c0,0-5.8,16.2-9,7
        		l-6.3,3.6c0,2.1-0.3,4.5-1.2,6.4c-0.5,1.1-1.3,2.2-2.7,2.1c-4.1-0.2-4.3-5.3-3.7-8.3c0,0,0-0.2,0.1-0.2c0,0-15.6,7.3-15.6,7.3
        		s-1.1,9.2,5.2,8.7c6.3-0.5,8.1-1.1,22.4-6.4c4.5-1.7,9-3.3,13.4-5c3.2-1.2,6.3-2.4,9.5-3.6c0.5-0.2,1-0.4,1.5-0.6
        		c0.5-0.2,1-0.3,1.4-0.5c0.5-0.2,0.9-0.6,1.3-0.9c1-0.8,2-1.6,3-2.3c3-2.2,6.2-4.3,9.5-6.1c2.1-1.1,4.3-2.1,6.5-2.9
        		c1.2-0.4,2.4-0.6,3.4-1.4c2-1.5,3.6-3.6,5.3-5.4c2.1-2.2,4.4-4.2,7-5.9c1.5-1,3.1-1.9,4.8-2.7c0.8-0.4,1.7-0.8,2.6-1.1
        		c0.8-0.3,1.7-0.5,2.4-1c3.7-2.4,7.4-4.7,11.2-7c3.4-2.1,6.9-4.2,10.3-6.2c2.3-1.4,4.6-2.7,6.9-4.1C225.6,40.3,226,40.1,226.4,39.8z
        		" style="fill: rgb(255,255,255);"></path>
        <path class="st0 colorMain" d="M333.7,121.1c-0.2,1.7-0.3,3.3-0.5,5c0,0,3-3.9,2.6-38.1c0-3.8-0.2-7.7-0.6-11.5c-0.6-6.6-1.6-13.2-3.6-19.5
          		c-0.6-2-1.3-4-2.2-6c-1.2-2.7-3-5.1-3.7-8c-0.1-0.3-0.1-0.7-0.3-1c-0.8-1.4-2.7-1.5-4.1-1.3c-5.2,0.7-9.9,3.8-11.6,9
          		c-2.9,9-7.7,12.9-18.4,17.7c-10.7,4.8-45.1-18.7-45.1-18.7c5.8-9.4-11.4-29.7-15.3-34.8s-12,0.5-12,0.5l0,0c0,0,0,0,0,0
          		c2.1,1.2,6.6,4.9,6.6,4.9s1.6,1.3-1.3,2c-2.8,1.1-3.7,1.8-3.7,1.8s-3.9,3.2-4.6,4.5c-2.8,0-6.7-0.1-11.3,4.6l-4.2-3.6L188,40.2
          		h-1.6c0,0-2.2,2.3-6.9,6.2s-4.2,4.5-4.2,4.5c-5.8,1.9-8.8,6.9-8.8,6.9c-2.7-0.5-2.4-0.3-8.1,2.2c-5.7,2.5-4.9,4-4.9,4
          		c-2.8,0.5-10.6,4.2-10.6,6.2c0,2-2.8,3.4-2.8,3.4c-7.1-1.3-11.5,5.1-11.8,6.5c-0.3,1.4-3.4,3.5-3.4,3.5c-5.9-2.7-11.8,4.4-11.8,4.4
          		c-0.6,3-0.5,8.1,3.7,8.3c1.3,0.1,2.2-1,2.7-2.1c0.9-2,1.1-4.3,1.2-6.4l6.3-3.6c3.3,9.2,9-7,9-7l5.4-1.5c-0.1,0.8-0.2,1.6-0.3,2.4
          		c-0.1,1.7-0.4,5.3,1.7,6.2c1.6,0.7,3.5-0.5,4.7-1.6c0.1-0.1,0.2-0.2,0.3-0.3c0-0.1,0-0.2,0-0.4c0-1.1,0-2.2,0-3.3
          		c0-2.4,0-4.8,0-7.1c0,0,4.7-4.7,4.8-4.7c-0.1,0.1-0.1,0.8-0.1,1c0,0.3,0,0.6,0,0.9c0,0.5,0,1,0,1.6c0.1,0.9,0.1,1.9,0.6,2.6
          		c0.4,0.6,1.1,1,1.8,1c1.5-0.1,2.6-1.3,3.7-2.2c0.7-0.5,1.2-1.3,1.5-2.1c0.3-1,0.3-2,0.3-3c0.1-1,0.2-2,0.3-3.1l5-2.5
          		c0.1,0.8,0.2,1.6,0.4,2.3c0.3,1.6,0.7,3.2,1.3,4.6c0.4,0.9,1.1,2,2.2,2c0.9,0,1.7-0.9,2.3-1.5c0.4-0.5,0.8-1.1,1.1-1.7
          		c0.6-1.1,0.8-2.3,0.8-3.5c0-0.8,0.1-1.6,0.1-2.3c0.1-2.3,0.2-4.6,0.4-6.8l1.5-1.1c-0.1,0.1,1.1,2.3,1.3,2.5
          		c0.3,0.6,0.7,1.1,1.2,1.6c0.6,0.7,1.5,1.3,2.4,1c0.8-0.2,1.4-0.9,1.9-1.6c0.5-0.8,0.9-1.6,1.3-2.5c0.7-1.7,0.7-3.3,0.8-5.1
          		c0.1-0.8,0.1-1.7,0.2-2.5c0-0.1,0.9-0.4,0.9-0.4c0.4-0.2,0.9-0.3,1.2-0.6c0,0,0.1-0.1,0.1-0.1c0.1-0.2,0.1-0.5,0.1-0.8
          		c0-0.4,0.1-0.7,0.1-1.1c0.1-0.7,0.1-1.3,0.2-2c0,0,2.1,0.8,4.1,2.5c0.1,0.1-0.3,1.8-0.3,2.1c-0.1,0.6-0.2,1.2-0.2,1.8
          		c-0.1,1.5-0.3,4.7,1.6,5.2c0.6,0.1,1.3-0.1,1.9-0.3c1.8-0.9,3.4-2.1,4.5-3.9c1-1.7,1.3-3.9,1.2-5.8c-0.1-2.5,1.4-4.1,1.4-4.1
          		c0.5-0.6,1.2-1,1.8-1.6c1.3-1.2,2.7-2.3,4-3.5c0.7-0.6,1.3-1.2,2-1.8c0.6-0.5,1.3-1.4,2.1-1.7c0.9-0.3,2.1,0.3,3,0.7
          		c2.7,1.3,5.2,3.2,7.6,5.1c1.4,1.1,2.8,2.2,4.1,3.4c-0.4,0.3-0.9,0.5-1.3,0.8c-2.3,1.3-4.6,2.7-6.9,4.1c-3.4,2.1-6.9,4.1-10.3,6.2
          		c-3.8,2.3-7.5,4.6-11.2,7c-0.7,0.5-1.6,0.7-2.4,1c-0.9,0.3-1.7,0.7-2.6,1.1c-1.7,0.8-3.3,1.7-4.8,2.7c-2.6,1.7-4.8,3.7-7,5.9
          		c-1.7,1.8-3.3,3.9-5.3,5.4c-1,0.8-2.2,0.9-3.4,1.4c-2.2,0.8-4.4,1.8-6.5,2.9c-3.3,1.8-6.5,3.8-9.5,6.1c-1,0.7-2,1.5-3,2.3
          		c-0.4,0.3-0.8,0.7-1.3,0.9c-0.5,0.2-1,0.3-1.4,0.5c-0.5,0.2-1,0.4-1.5,0.6c-3.2,1.2-6.3,2.4-9.5,3.6c-4.5,1.7-8.9,3.4-13.4,5
          		c-14.3,5.3-16,5.9-22.4,6.4c-6.3,0.5-5.2-8.7-5.2-8.7c-7,4.8-59,18.8-59,18.8c5.8,1,29.8,4.9,46,4.9s33.3-0.6,33.3-0.6
          		s12.4,0,11.6-12.4c-0.5-5.6-0.5-8.5-0.5-8.5l23.6-9.5c0,0,9.5,16,19,21.7c9.6,5.7,17.2,11.3,21.1,20.6c1.7,3.8,1.6,4.7,1.3,6
          		c0,0,0,0,0,0c15.4-2.4,45.4-5.8,65.4-7.7c0,0,0,0,0,0c-2.2-14.1-9.8-26.7-9.8-26.7l78.4-20c0.3,0.3,0.7,0.7,1,1
          		c1.8,2.1,3.3,4.6,4.1,7.3c0.3,1.1,0.5,2.2,0.6,3.4c0,0.6,0,1.1,0,1.7c0,0.7,0.3,1.4,0.5,2.1c0.1,0.7,0.2,1.4,0.3,2.1
          		c0.4,3.6,0.2,7.3,0.1,10.9C334.3,113.8,334,117.5,333.7,121.1z M227,40.3c0,0,8.1,7.3,15.6,14.3s24.6,14.1,36.1,18.3s25-0.9,27.2-2
          		c2.6,0.4,5.8,4.1,5.8,4.1l-74,14.3c0,0-0.8-0.7-13.2-7.9S204,53.9,204,53.9L227,40.3z M247.3,101.3l-37.6,7.5
          		c0,0-24.8,5.4-31.5-9.5c-6.8-19.4,22.8-32.5,22.8-32.5c-7.1,34.3,36.1,23.5,36.1,23.5s49.2-9,66.7-12.6s23.4,3,23.4,3L247.3,101.3z
          		" style="fill: rgb(255,255,255);"></path>
    </g>
    <g>
        <path class="st0 colorSwosh" d="M327.1,80.7c0,0-5.9-6.5-23.4-3S237,90.4,237,90.4s-43.3,10.8-36.1-23.5c0,0-29.5,13.1-22.8,32.5
        		c6.8,14.9,31.5,9.5,31.5,9.5l37.6-7.5L327.1,80.7z" style="fill: rgb(255,255,255);"></path>
    </g>
    <g>
        <path class="st0 colorFrontPanel" id="colorFrontPanel" d="M192.3,136.3c0.5-0.1,1.1-0.2,1.7-0.3c0,0,0,0,0,0c0.2-1.3,0.3-2.2-1.3-6c-3.9-9.3-11.5-14.9-21.1-20.6
        		c-9.6-5.7-19-21.7-19-21.7L129,97.3c0,0,0.1,2.9,0.5,8.5c0.8,12.4-11.6,12.4-11.6,12.4s-17,0.6-33.3,0.6s-40.3-3.9-46-4.9
        		c-4.4,4-8.6,17.3-8.6,17.3c6.8,2.1,33.6,9.8,60,9.9S171.3,139.7,192.3,136.3z" style="fill: rgb(255,255,255);">
        </path>
    </g>
    <g>
        <path class="st0 colorBackPanel" d="M311.6,74.9c0,0-3.2-3.6-5.8-4.1c-2.2,1.1-15.8,6.3-27.2,2s-28.6-11.3-36.1-18.3S227,40.3,227,40.3l-23,13.6
        		c0,0,8,20.3,20.4,27.4s13.2,7.9,13.2,7.9L311.6,74.9z" style="fill: rgb(255,255,255);"></path>
        <path class="st0 colorBackPanel" d="M249.6,101.7c0,0,7.5,12.6,9.8,26.7c0,0,0,0,0,0c8.6-0.8,15.3-1.3,18.3-1.4c10.1-0.1,55.5-0.9,55.5-0.9
        		c0.2-1.7,0.4-3.3,0.5-5c0.4-3.7,0.6-7.3,0.8-11c0.2-3.6,0.3-7.3-0.1-10.9c-0.1-0.7-0.2-1.4-0.3-2.1c-0.2-0.7-0.5-1.4-0.5-2.1
        		c0-0.6,0-1.1,0-1.7c-0.1-1.1-0.3-2.3-0.6-3.4c-0.8-2.7-2.2-5.2-4.1-7.3c-0.3-0.4-0.6-0.7-1-1"
            style="fill: rgb(255,255,255);"></path>
    </g>
    <g>
        <path class="st0 colorTop" d="M226.4,39.8c-1.3-1.2-2.7-2.3-4.1-3.4c-2.4-1.9-4.9-3.8-7.6-5.1c-0.9-0.4-2-1-3-0.7c-0.8,0.2-1.5,1.1-2.1,1.7
        		c-0.7,0.6-1.3,1.2-2,1.8c-1.3,1.2-2.7,2.3-4,3.5c-0.6,0.5-1.3,1-1.8,1.6c0,0-1.5,1.5-1.4,4.1c0.1,1.9-0.3,4.1-1.2,5.8
        		c-1,1.7-2.6,3-4.5,3.9c-0.6,0.3-1.2,0.5-1.9,0.3c-2-0.5-1.7-3.7-1.6-5.2c0-0.6,0.1-1.2,0.2-1.8c0-0.3,0.5-2,0.3-2.1
        		c-2-1.8-4.1-2.5-4.1-2.5c-0.1,0.7-0.1,1.3-0.2,2c0,0.4-0.1,0.7-0.1,1.1c0,0.2,0,0.6-0.1,0.8c0,0.1-0.1,0.1-0.1,0.1
        		c-0.3,0.3-0.9,0.4-1.2,0.6c-0.1,0-0.9,0.4-0.9,0.4c-0.1,0.8-0.1,1.7-0.2,2.5c-0.1,1.8-0.2,3.4-0.8,5.1c-0.3,0.9-0.7,1.7-1.3,2.5
        		c-0.5,0.7-1.1,1.4-1.9,1.6c-1,0.2-1.8-0.4-2.4-1c-0.5-0.5-0.8-1.1-1.2-1.6c-0.1-0.2-1.4-2.4-1.3-2.5c0,0-1.5,1.1-1.5,1.1
        		c-0.1,2.3-0.2,4.6-0.4,6.8c0,0.8-0.1,1.6-0.1,2.3c-0.1,1.2-0.2,2.4-0.8,3.5c-0.3,0.6-0.7,1.1-1.1,1.7c-0.5,0.7-1.3,1.5-2.3,1.5
        		c-1.1,0-1.8-1.1-2.2-2c-0.7-1.4-1-3-1.3-4.6c-0.1-0.8-0.3-1.5-0.4-2.3c0,0-5,2.5-5,2.5c-0.1,1-0.2,2-0.3,3.1c-0.1,1,0,2-0.3,3
        		c-0.3,0.8-0.8,1.6-1.5,2.1c-1.1,0.8-2.2,2.1-3.7,2.2c-0.7,0-1.4-0.3-1.8-1c-0.5-0.8-0.6-1.8-0.6-2.6c0-0.5,0-1,0-1.6
        		c0-0.3,0-0.6,0-0.9c0-0.2,0-0.9,0.1-1c0,0-4.8,4.7-4.8,4.7c0,2.4,0,4.8,0,7.1c0,1.1,0,2.2,0,3.3c0,0.1,0,0.2,0,0.4
        		c-0.1,0.1-0.2,0.2-0.3,0.3c-1.2,1.1-3.1,2.3-4.7,1.6c-2.1-0.9-1.8-4.4-1.7-6.2c0.1-0.8,0.2-1.6,0.3-2.4l-5.4,1.5c0,0-5.8,16.2-9,7
        		l-6.3,3.6c0,2.1-0.3,4.5-1.2,6.4c-0.5,1.1-1.3,2.2-2.7,2.1c-4.1-0.2-4.3-5.3-3.7-8.3c0,0,0-0.2,0.1-0.2c0,0-15.6,7.3-15.6,7.3
        		s-1.1,9.2,5.2,8.7c6.3-0.5,8.1-1.1,22.4-6.4c4.5-1.7,9-3.3,13.4-5c3.2-1.2,6.3-2.4,9.5-3.6c0.5-0.2,1-0.4,1.5-0.6
        		c0.5-0.2,1-0.3,1.4-0.5c0.5-0.2,0.9-0.6,1.3-0.9c1-0.8,2-1.6,3-2.3c3-2.2,6.2-4.3,9.5-6.1c2.1-1.1,4.3-2.1,6.5-2.9
        		c1.2-0.4,2.4-0.6,3.4-1.4c2-1.5,3.6-3.6,5.3-5.4c2.1-2.2,4.4-4.2,7-5.9c1.5-1,3.1-1.9,4.8-2.7c0.8-0.4,1.7-0.8,2.6-1.1
        		c0.8-0.3,1.7-0.5,2.4-1c3.7-2.4,7.4-4.7,11.2-7c3.4-2.1,6.9-4.2,10.3-6.2c2.3-1.4,4.6-2.7,6.9-4.1C225.6,40.3,226,40.1,226.4,39.8z
        		" style="fill: rgb(255,255,255);"></path>
        <path class="st0 colorTop" d="M200.8,28.8C200.8,28.8,200.8,28.8,200.8,28.8c0.1-0.1,0.3-0.2,0.6-0.5c2.9-2.5,15.8-13.6,17.8-13.7
        		c2.1,1.2,6.6,4.9,6.6,4.9s1.6,1.3-1.3,2c-2.8,1.1-3.7,1.8-3.7,1.8s-3.9,3.2-4.6,4.5c-2.8,0-6.7-0.1-11.3,4.6"
            style="fill: rgb(255,255,255);"></path>
    </g>
    <g>
        <path class="st0 colorMidsole" d="M39.7,153.2c0.4,0.5,0.9,0.9,1.4,1.3c3.3,2.8,7.4,4.5,11.6,5.5c3.6,0.9,7.2,1.7,10.8,2.3
        		c1.8,0.3,3.7,0.5,5.5,0.7c1.8,0.2,3.7,0.4,5.5,0.5c1.8,0.1,3.5,0.2,5.3,0.3c1.6,0.1,3.2,0.1,4.8,0.2c1.4,0,2.8,0.1,4.2,0.1
        		c1.1,0,2.2,0,3.2,0c0.7,0,1.4,0,2.1,0c0.3,0,0.5,0,0.8,0l161.2,0.5c0,0,48.3,0,58.5-0.2c8-0.1,14.6-2.5,18.3-4.7
        		c1.4-1,2.4-1.7,2.4-1.7c2.4-13-2-31.9-2-31.9s-45.4,0.8-55.5,0.9s-64.3,6-85.3,9.3s-76,4.8-102.3,4.7s-53.3-7.8-60-9.9
        		c-4.9,7.9-5.5,14.9-5.5,14.9C30,146.8,34.9,148,39.7,153.2z" style="fill: rgb(255,255,255);"></path>
    </g>
    <g>
        <path class="st0 colorSole" d="M214.3,174.7h79.3c0,0,22.2-0.2,32.8-4.5c10.7-4.3,8.7-7.7,8.7-12.2c-2.5,2.3-10.5,6.2-20.7,6.3
        		c-10.2,0.2-58.5,0.2-58.5,0.2L94.8,164c-0.3,0-0.5,0-0.8,0c-0.7,0-1.4,0-2.1,0c-1.1,0-2.2,0-3.2,0c-1.4,0-2.8,0-4.2-0.1
        		c-1.6,0-3.2-0.1-4.8-0.2c-1.8-0.1-3.5-0.2-5.3-0.3c-1.8-0.1-3.7-0.3-5.5-0.5c-1.8-0.2-3.7-0.4-5.5-0.7c-3.6-0.6-7.2-1.4-10.8-2.3
        		c-4.1-1.1-8.3-2.7-11.6-5.5c-0.5-0.4-1-0.9-1.4-1.3c-4.8-5.2-9.7-6.3-15.2-7.2c-0.8,2.8-2.7,14.2,14.5,19.7s47.5,8.7,60.2,8.7
        		S214.3,174.7,214.3,174.7z" style="fill: rgb(255,255,255);"></path>
    </g>
    <g>
        <path class="st0 colorAir"
            d="M296.3,146.3l-5,10.3l1.5,0l0.9-1.5h2.8v1.5h0.9v-10.3H296.3z M296,154.1h-2l2-4.1V154.1z"
            style="fill: rgb(255,255,255);"></path>
        <path class="st0 colorAir"
            d="M308.7,148.8c-0.1-2.4-4.3-2.6-4.3-2.6l-3,10.3h1.5l0.9-3.4l2.2,3.4h2l-2.6-3.9
        		C307.2,152.7,308.7,151.3,308.7,148.8z M304.6,151.1l0.7-3.6c0,0,2.1-0.1,1.9,2.2C307.1,150.4,306.8,151.3,304.6,151.1z"
            style="fill: rgb(255,255,255);"></path>
        <polyline class="st0 colorAir" points="298.3,156.5 301.1,146.3 302.5,146.3 299.8,156.5 	"
            style="fill: rgb(255,255,255);"></polyline>
    </g>
</svg>